<?xml version="1.0" encoding="UTF-8"?>
<svg id="Layer_1" xmlns="http://www.w3.org/2000/svg" version="1.1" viewBox="0 0 439.6 61.1">
  <!-- Generator: Adobe Illustrator 29.2.1, SVG Export Plug-In . SVG Version: 2.1.0 Build 116)  -->
  <path d="M44.9,9.9c-2.6-2.6-5.9-4.7-9.8-6.3s-8.5-2.3-13.7-2.3H0v58.6h21.4c5.2,0,9.8-.8,13.7-2.5,3.9-1.6,7.2-3.8,9.8-6.5s4.6-5.8,5.9-9.2c1.3-3.4,1.9-6.8,1.9-10.3v-1.7c0-3.7-.6-7.3-1.9-10.7-1.3-3.4-3.3-6.4-5.9-9.1ZM38.4,37.6c-.8,2.1-2,4-3.5,5.5-1.5,1.5-3.4,2.7-5.5,3.5-2.2.8-4.6,1.2-7.3,1.2h-9.2V13.5h9.2c2.7,0,5.1.4,7.3,1.1s4,1.9,5.5,3.4,2.7,3.3,3.5,5.4c.8,2.1,1.2,4.5,1.2,7.2s-.4,4.9-1.2,7.1h0ZM102.4,33.5c1.8,2.5,2.7,5.6,2.7,9.1s-1,6.9-2.9,9.7c-1.9,2.8-4.7,4.9-8.2,6.5-3.5,1.5-7.8,2.3-12.7,2.3s-9.6-.8-13.2-2.5c-3.6-1.7-6.3-3.9-8.2-6.8-1.8-2.9-2.8-6.2-2.8-9.9h12.6c0,1.5.4,2.8,1.2,4.1.8,1.3,2.1,2.3,3.8,3,1.7.8,3.9,1.1,6.6,1.1s4.5-.3,6.1-.9,2.9-1.5,3.7-2.7c.8-1.1,1.3-2.4,1.3-3.9s-.8-3.3-2.4-4.4c-1.6-1.1-4.1-1.8-7.7-2.1l-4.4-.4c-5.8-.5-10.3-2.3-13.8-5.4-3.4-3.1-5.1-7.2-5.1-12.3s.9-6.9,2.7-9.6c1.8-2.7,4.2-4.8,7.4-6.2s6.9-2.2,11.2-2.2,8.4.8,11.7,2.3c3.2,1.6,5.7,3.7,7.5,6.6,1.7,2.8,2.6,6.1,2.6,9.9h-12.7c0-1.4-.3-2.7-1-3.9s-1.7-2.1-3-2.9c-1.3-.7-3-1.1-5-1.1s-3.5.3-4.8,1c-1.3.6-2.3,1.5-2.9,2.6-.6,1.1-1,2.3-1,3.5s.6,3.1,1.7,4.3c1.2,1.2,3.1,1.9,5.7,2.1l4.4.4c4.2.4,7.9,1.3,11.2,2.7,3.2,1.5,5.7,3.4,7.6,5.9h0ZM151.2,7.3c-1.9-2.1-4.3-3.8-7.1-5-2.8-1.2-6-1.9-9.7-1.9s-6.9.6-9.7,1.9c-2.8,1.2-5.2,2.9-7.1,5s-3.4,4.4-4.4,7c-1,2.6-1.5,5.2-1.5,7.9v1.3c0,2.6.5,5.2,1.4,7.8s2.4,4.9,4.3,7.1,4.3,3.9,7.1,5.1c2.8,1.3,6.1,1.9,9.8,1.9s7-.6,9.8-1.9,5.2-3,7.1-5.1,3.3-4.5,4.3-7.1,1.4-5.2,1.4-7.8v-1.3c0-2.7-.5-5.3-1.5-7.9-1-2.6-2.4-4.9-4.4-7h.2ZM150.3,32.1c-1.5,2.8-3.6,5-6.3,6.6-2.7,1.7-5.9,2.5-9.5,2.5s-6.8-.8-9.5-2.5-4.8-3.9-6.3-6.6-2.3-5.8-2.3-9.2.8-6.6,2.3-9.4,3.6-5,6.3-6.6c2.7-1.6,5.9-2.4,9.5-2.4s6.8.8,9.5,2.4,4.8,3.8,6.3,6.6c1.5,2.8,2.3,5.9,2.3,9.4s-.8,6.5-2.3,9.2ZM141.7,24.7c1.8-1.5,2.7-3.5,2.7-6.2s-.9-4.8-2.7-6.2c-1.8-1.5-4.3-2.2-7.5-2.2h-8.6v24.5h5.1v-7.8h3.6l5.7,7.8h5.9l-6.7-8.6c.9-.3,1.7-.8,2.3-1.3h.2ZM130.7,14.6h4c1.5,0,2.6.3,3.4,1,.8.6,1.1,1.6,1.1,3s-.4,2.2-1.1,2.9c-.8.7-1.9,1-3.4,1h-4v-7.8h0ZM235.6,1.8l-16.4,57.8h-21.1L180.5,1.8h13.4l13.5,47.2h2.7L222.6,1.8s13,0,13,0ZM253.6,1.8l-19.1,57.8h13l4.6-14.3h24.1l4.7,14.3h13.5L274.6,1.8h-21ZM255.5,34.5l7-22.1h2.9l7.2,22.1h-17.2.1ZM336.3,1.8h13v34.3c0,5.1-1,9.5-2.9,13.3-2,3.7-4.8,6.6-8.5,8.7-3.7,2-8.4,3-13.8,3s-10-1-13.8-3-6.6-4.9-8.6-8.7c-2-3.7-2.9-8.2-2.9-13.3V1.8h13v34.7c0,2.5.5,4.7,1.5,6.6,1,1.9,2.4,3.3,4.2,4.3,1.8,1,4,1.5,6.7,1.5s4.9-.5,6.8-1.5c1.8-1,3.2-2.4,4.2-4.3,1-1.8,1.4-4.1,1.4-6.6V1.8h-.3ZM374.2,48.2h22.6v11.4h-35.6V1.8h13v46.4ZM439.6,13.1h-16.3v46.5h-13V13.1h-16.2V1.8h45.5v11.3Z"/>
</svg>